<?xml version="1.0" standalone="no"?>
<!DOCTYPE svg PUBLIC "-//W3C//DTD SVG 20010904//EN"
 "http://www.w3.org/TR/2001/REC-SVG-20010904/DTD/svg10.dtd">
<svg version="1.0" xmlns="http://www.w3.org/2000/svg"
 width="1026.000000pt" height="1280.000000pt" viewBox="0 0 1026.000000 1280.000000"
 preserveAspectRatio="xMidYMid meet">
<g transform="translate(0.000000,1280.000000) scale(0.100000,-0.100000)"
fill="#000000" stroke="none">
<path d="M5021 12779 c-98 -28 -166 -67 -231 -131 -103 -103 -147 -222 -138
-380 15 -250 221 -440 478 -440 196 0 352 100 438 280 36 76 37 79 37 197 -1
101 -4 129 -24 177 -30 77 -89 154 -159 207 -64 50 -98 65 -194 92 -82 23
-123 23 -207 -2z"/>
<path d="M3375 12753 c-246 -29 -375 -62 -517 -134 -201 -102 -470 -279 -1025
-676 -714 -510 -1086 -739 -1502 -923 -215 -95 -317 -145 -326 -161 -11 -17
72 -95 125 -118 104 -45 265 -50 479 -16 257 42 680 260 1275 658 364 243 512
372 641 556 50 71 61 82 84 79 l26 -3 1 -135 c4 -276 79 -466 256 -642 75 -75
101 -94 190 -137 143 -68 220 -85 398 -85 139 -1 145 -2 148 -22 2 -12 -11
-38 -32 -63 -60 -71 -60 -151 -1 -268 96 -192 319 -370 550 -438 164 -49 391
-34 562 36 39 17 73 36 75 42 5 14 -11 749 -16 754 -2 2 -39 -5 -82 -16 -158
-40 -293 -37 -416 9 -165 62 -288 231 -288 396 l0 66 133 136 c177 184 227
280 227 440 0 125 -46 253 -141 393 -103 152 -275 241 -521 269 -79 9 -239 11
-303 3z"/>
<path d="M6570 12750 c-237 -30 -409 -121 -509 -269 -158 -233 -183 -436 -78
-636 22 -40 75 -105 165 -197 l132 -136 0 -66 c0 -165 -123 -334 -288 -396
-123 -46 -258 -49 -416 -9 -43 11 -80 18 -82 16 -5 -5 -21 -740 -16 -754 6
-18 137 -69 227 -88 50 -11 125 -17 200 -17 101 0 134 4 210 27 231 68 454
246 550 438 59 117 59 197 -1 268 -21 25 -34 51 -32 63 3 20 9 21 148 22 178
0 255 17 398 85 89 43 115 62 190 137 177 176 252 366 256 642 l1 135 26 3
c23 3 34 -8 84 -79 129 -184 277 -313 641 -556 595 -398 1018 -616 1275 -658
214 -34 375 -29 479 16 53 23 136 101 125 118 -9 16 -111 66 -326 161 -416
184 -788 413 -1502 923 -775 555 -1016 701 -1257 762 -168 44 -450 65 -600 45z"/>
<path d="M4816 11722 c-2 -4 -1 -165 4 -357 5 -193 14 -541 20 -775 15 -642
29 -1212 40 -1640 6 -212 10 -434 10 -494 l0 -108 -32 6 c-66 13 -316 99 -418
145 -314 140 -486 302 -566 536 -23 67 -28 102 -31 215 -4 111 -2 139 10 155
15 20 17 19 64 -26 98 -94 183 -123 337 -117 92 3 108 7 178 41 195 94 310
242 248 320 -74 93 -298 143 -530 117 -203 -22 -341 -88 -480 -229 -217 -219
-271 -514 -148 -805 108 -255 398 -525 781 -726 26 -14 47 -30 47 -36 0 -6
-40 -41 -89 -77 -346 -258 -514 -574 -498 -937 16 -382 199 -690 577 -974 74
-56 150 -111 168 -121 17 -11 32 -25 32 -31 0 -7 -46 -45 -102 -85 -113 -81
-267 -223 -333 -310 -173 -224 -224 -494 -150 -798 72 -294 206 -516 459 -758
69 -66 126 -123 126 -127 0 -4 -28 -39 -63 -79 -170 -195 -237 -361 -237 -587
0 -306 132 -518 493 -790 37 -28 67 -54 67 -58 0 -4 -48 -55 -107 -112 -188
-184 -253 -321 -253 -531 0 -103 28 -227 72 -312 43 -86 151 -227 164 -215 3
4 -3 63 -15 130 -52 290 -35 403 82 556 67 88 279 254 299 234 8 -8 15 -227
38 -1192 5 -234 12 -503 16 -597 l6 -173 28 0 28 0 6 173 c4 94 11 363 16 597
23 980 30 1184 39 1193 18 18 217 -135 288 -222 92 -113 129 -224 120 -361 -3
-47 -16 -140 -28 -208 -12 -67 -18 -126 -14 -130 13 -13 118 126 163 215 44
85 72 209 72 312 0 215 -65 350 -257 535 -57 55 -103 103 -103 108 0 4 30 30
68 58 361 274 493 484 493 790 1 223 -68 392 -238 587 -35 40 -63 75 -63 79 0
4 57 61 126 127 253 242 387 463 459 757 74 305 24 575 -150 799 -66 87 -220
229 -332 310 -57 40 -103 78 -103 85 0 6 15 20 32 31 155 91 454 357 535 475
211 310 268 685 153 1003 -74 201 -228 394 -441 554 -49 36 -89 71 -89 77 0 6
21 22 48 36 202 106 408 254 543 389 202 204 301 417 300 651 0 119 -18 189
-78 310 -84 169 -251 313 -434 374 -218 73 -546 49 -675 -49 -82 -62 -73 -119
34 -225 59 -58 98 -86 167 -120 86 -42 95 -45 191 -48 155 -6 239 23 337 117
47 45 49 46 64 26 12 -16 14 -44 10 -155 -3 -113 -8 -148 -31 -215 -80 -234
-249 -394 -566 -536 -106 -47 -351 -133 -415 -145 l-35 -6 0 103 c0 57 7 370
15 694 8 325 19 784 25 1020 6 237 15 603 20 815 5 212 11 466 12 565 l3 180
-312 3 c-171 1 -314 -1 -317 -6z m110 -4662 c10 -356 16 -735 14 -797 0 -21
-18 -15 -81 28 -152 103 -258 217 -325 352 -119 234 -73 486 124 685 74 74
216 175 241 170 14 -3 17 -53 27 -438z m530 388 c216 -145 334 -335 334 -541
0 -233 -138 -447 -402 -625 -50 -34 -68 -39 -69 -19 -3 51 22 1209 27 1225 6
22 31 13 110 -40z m-492 -2156 c3 -5 10 -197 15 -428 15 -605 15 -623 8 -630
-11 -11 -157 98 -202 151 -104 121 -165 269 -165 398 0 170 74 304 248 453 76
65 87 71 96 56z m428 -56 c174 -149 248 -283 248 -453 0 -140 -73 -304 -185
-417 -65 -66 -171 -143 -182 -132 -4 3 -6 46 -5 94 15 660 24 957 28 964 9 15
20 8 96 -56z m-366 -2273 c5 -224 4 -313 -4 -313 -19 0 -123 142 -155 210 -41
87 -44 190 -7 265 29 60 136 174 149 160 5 -6 13 -151 17 -322z m307 257 c70
-78 92 -131 92 -220 -1 -63 -6 -86 -31 -140 -33 -69 -138 -210 -156 -210 -8 0
-9 89 -4 312 4 172 10 316 12 320 8 13 39 -9 87 -62z"/>
<path d="M2436 11665 c-15 -8 -78 -59 -140 -113 -501 -440 -897 -713 -1287
-888 -147 -66 -167 -82 -154 -120 15 -41 68 -62 185 -75 121 -13 259 -1 369
33 176 54 571 288 886 526 209 158 300 236 319 276 17 36 17 36 -22 124 -40
89 -66 162 -77 220 -8 37 -31 42 -79 17z"/>
<path d="M7745 11648 c-11 -58 -37 -131 -77 -220 -39 -88 -39 -88 -22 -124 19
-40 110 -118 319 -276 315 -238 710 -472 886 -526 110 -34 248 -46 369 -33
117 13 170 34 185 75 13 38 -7 54 -154 120 -392 176 -774 439 -1294 894 -65
57 -129 107 -143 112 -46 18 -62 12 -69 -22z"/>
<path d="M2507 11062 c-289 -280 -479 -425 -842 -638 -86 -51 -100 -63 -103
-88 -2 -16 2 -32 9 -37 7 -4 51 -13 98 -20 250 -35 481 46 792 277 104 77 441
357 473 392 31 35 15 65 -61 110 -38 22 -93 66 -123 96 -30 31 -63 56 -73 56
-11 0 -84 -63 -170 -148z"/>
<path d="M7506 11151 c-32 -32 -87 -76 -122 -96 -73 -43 -89 -72 -58 -107 31
-34 368 -314 473 -392 311 -231 542 -312 792 -277 47 7 91 16 98 20 7 5 11 21
9 37 -3 25 -17 37 -103 88 -363 213 -553 358 -842 638 -86 85 -159 148 -170
148 -10 0 -45 -27 -77 -59z"/>
<path d="M3048 10937 c-13 -5 -47 -39 -76 -77 -91 -116 -277 -304 -452 -455
-92 -80 -171 -152 -174 -160 -25 -65 112 -103 255 -71 146 32 375 177 556 350
159 152 239 267 231 334 -3 25 -8 28 -63 35 -33 4 -104 18 -157 30 -64 15
-105 20 -120 14z"/>
<path d="M7090 10923 c-52 -12 -122 -26 -155 -30 -55 -7 -60 -10 -63 -35 -8
-67 72 -182 231 -334 181 -173 410 -318 556 -350 143 -32 280 6 255 71 -3 8
-82 80 -174 160 -175 150 -361 338 -452 455 -29 38 -64 72 -78 77 -17 6 -56 1
-120 -14z"/>
</g>
</svg>
